<?xml version="1.0"?>
<svg xmlns="http://www.w3.org/2000/svg" viewBox="0 0 64 64" width="512" height="512"><g id="outline"><path d="M57,23h-.026A4.948,4.948,0,0,0,58,20V12a5.006,5.006,0,0,0-5-5H7a5.006,5.006,0,0,0-5,5v8a5.006,5.006,0,0,0,5,5h.026A4.948,4.948,0,0,0,6,28v8a4.948,4.948,0,0,0,1.026,3H7a5.006,5.006,0,0,0-5,5v8a5.006,5.006,0,0,0,5,5H57a5.006,5.006,0,0,0,5-5V44a4.982,4.982,0,0,0-2.031-4A4.982,4.982,0,0,0,62,36V28A5.006,5.006,0,0,0,57,23Zm-1-3a3,3,0,0,1-3,3H49.721l-1.334-4H56ZM12.387,19h3.892l1.334,4H13.721ZM4,17V15H56v2Zm14.387,2h1.892l1.334,4H19.721Zm4,0h3.892l1.334,4H23.721Zm6,0h1.892l1.334,4H29.721Zm4,0h3.892l1.334,4H33.721Zm6,0h1.892l1.334,4H39.721Zm4,0h3.892l1.334,4H43.721ZM53,9a3,3,0,0,1,3,3v1H48.387l1.334-4ZM47.613,9l-1.334,4H42.387l1.334-4Zm-6,0-1.334,4H38.387l1.334-4Zm-4,0-1.334,4H32.387l1.334-4Zm-6,0-1.334,4H28.387l1.334-4Zm-4,0-1.334,4H22.387l1.334-4Zm-6,0-1.334,4H18.387l1.334-4Zm-4,0-1.334,4H12.387l1.334-4ZM4,12A3,3,0,0,1,7,9h4.613l-1.334,4H4Zm0,8V19h6.279l1.334,4H7A3,3,0,0,1,4,20ZM60,31v2H8V31ZM4,44a3,3,0,0,1,3-3h6.613l-1.334,4H4Zm44.279,1H44.387l1.334-4h3.892ZM60,47v2H4V47ZM42.279,45H40.387l1.334-4h1.892Zm-4,0H34.387l1.334-4h3.892Zm-6,0H30.387l1.334-4h1.892Zm-4,0H24.387l1.334-4h3.892Zm-6,0H20.387l1.334-4h1.892Zm-4,0H14.387l1.334-4h3.892ZM7,55a3,3,0,0,1-3-3V51h8.279l1.334,4Zm8.721,0-1.334-4h3.892l1.334,4Zm6,0-1.334-4h1.892l1.334,4Zm4,0-1.334-4h3.892l1.334,4Zm6,0-1.334-4h1.892l1.334,4Zm4,0-1.334-4h3.892l1.334,4Zm6,0-1.334-4h1.892l1.334,4Zm4,0-1.334-4h3.892l1.334,4ZM60,52a3,3,0,0,1-3,3H51.721l-1.334-4H60Zm0-8v1H50.387l1.334-4H57A3,3,0,0,1,60,44Zm0-8a3,3,0,0,1-3,3H11a3,3,0,0,1-3-3V35H21v2h2V35H38v2h2V35h4v2h2V35h2v2h2V35H60ZM45,29V27H43v2H33V27H31v2H29V27H27v2H18V27H16v2H8V28a3,3,0,0,1,3-3H57a3,3,0,0,1,3,3v1Z"/></g></svg>
