<svg height="512" viewBox="0 0 58 58" width="512" xmlns="http://www.w3.org/2000/svg"><g id="044---Karate" fill="none"><path id="Shape" d="m48 25.24c-.41-.93-8.5-19.52-11-24.69-.2327611-.46166711-.7790671-.66978368-1.26-.48l-3.12 1.26c-.5703005.34570018-.7898656 1.06466827-.51 1.67 2 4 .32.28 8.85 20h-12.96l-10-11-11-9-4.4-2.68c-.58987116-.43346185-1.39635753-.42053217-1.97203049.03161582-.57567295.452148-.77932377 1.23260542-.49796951 1.90838418l2.87 4.74 11 9 9 12v26h1v3c0 .5522847.4477153 1 1 1h3c.5522847 0 1-.4477153 1-1v-3h1v-20h16l2 6-6-1-1 5 12 2c1.62.45 3.56-2.55 2.86-4.07-5.4-11.68-4.39-8.86-6.38-13.38z" fill="#955ba5"/><path id="Shape" d="m53 30c-2.7614237 0-5-2.2385763-5-5s2.2385763-5 5-5 5 2.2385763 5 5-2.2385763 5-5 5z" fill="#fdd7ad"/><path id="Shape" d="m38.22 38c-.5013255-.1569282-1.0386092.1007932-1.23.59l-.94 2.8c-.1398585.6400693.2146613 1.2850391.83 1.51l4.12 1.1 1-5z" fill="#955ba5"/><path id="Shape" d="m48.66 27.47c-.3983428-.6784837-.6249101-1.4440064-.66-2.23.0615264.7813285.2863743 1.5410417.66 2.23z" fill="#f9c795"/><path id="Shape" d="m7 3-4 4-2.87-4.74c-.28135426-.67577876-.07770344-1.45623618.49796951-1.90838418.57567296-.45214799 1.38215933-.46507767 1.97203049-.03161582z" fill="#fdd7ad"/><path id="Shape" d="m29 54v3c0 .5522847-.4477153 1-1 1h-3c-.5522847 0-1-.4477153-1-1v-3z" fill="#fdd7ad"/><path id="Shape" d="m50.13 40.35-2.11-.35" fill="#2980ba"/><path id="Shape" d="m38.62 4-5 2-1.51-3c-.2620507-.59739682-.044625-1.29656941.51-1.64l3.14-1.26c.467692-.18253969.9982316.00999484 1.24.45z" fill="#fdd7ad"/><path id="Shape" d="m42 39-1 5-4.11-1.06c-.6153387-.2249609-.9698585-.8699307-.83-1.51l.94-2.8c.175457-.500122.7106387-.7764863 1.22-.63z" fill="#fdd7ad"/><path id="Shape" d="m50.56 31-8.68-3.5 5.61-3.44.51 1.18c.0591431 1.2482659.5835778 2.429136 1.47 3.31z" fill="#f9c795"/><path id="Shape" d="m48.66 27.47c-.3983428-.6784837-.6249101-1.4440064-.66-2.23.0615264.7813285.2863743 1.5410417.66 2.23z" fill="#f9c795"/><path id="Shape" d="m53 46-12-2 1-5 6 1-2-6h-9l-.82-3 5.7-3.5 8.68 3.5c.63 1.44.06-.4 5.3 10.93.7 1.52-1.24 4.52-2.86 4.07z" fill="#894b9d"/><path id="Shape" d="m31 28h-3c-.5522847 0-1-.4477153-1-1s.4477153-1 1-1h3c.5522847 0 1 .4477153 1 1s-.4477153 1-1 1z" fill="#c03a2b"/><path id="Shape" d="m29 32c-.4385565-.0033853-.8237305-.292132-.9499631-.7121422-.1262326-.4200103.0359373-.8732592.3999631-1.1178578l2.69-1.8c.4434784-.2036484.9691808-.0574582 1.2438598.3458992s.2181047.9460672-.1338598 1.2841008c-2.94 2-2.84 2-3.25 2z" fill="#c03a2b"/><path id="Shape" d="m37 34h-4c-1.65-6-1-3.55-3-11h4c2.61 9.58 2 7.24 3 11z" fill="#e64c3c"/></g></svg>