<svg height="512pt" viewBox="-13 0 512 512.01984" width="512pt" xmlns="http://www.w3.org/2000/svg"><path d="m.0117188 128.019531v366.933594c.0078124 9.421875 7.6445312 17.058594 17.0664062 17.066406h51.199219c9.421875-.007812 17.054687-7.644531 17.066406-17.066406v-366.933594c0-2.894531-.296875-5.78125-.878906-8.617187.296875.007812.578125.085937.878906.085937h68.265625c.300781 0 .582031-.082031.878906-.085937-.582031 2.835937-.878906 5.722656-.878906 8.617187v366.933594c.011719 9.421875 7.644531 17.058594 17.066406 17.066406h51.199219c9.421875-.007812 17.058594-7.644531 17.066406-17.066406v-203.648437c26.839844 26.382812 67.804688 32.039062 100.785156 13.917968l-69.105468 183.722656c-1.96875 5.242188-1.242188 11.117188 1.945312 15.722657s8.429688 7.351562 14.03125 7.351562h54.726563c7.097656-.023437 13.449219-4.421875 15.972656-11.058593l125.898437-334.816407c1.867188-4.839843 2.8125-9.984375 2.789063-15.171875-.003906-14.496094-7.371094-27.996094-19.566406-35.839844-12.191407-7.84375-27.53125-8.953124-40.726563-2.945312-10.324218 4.632812-18.351562 13.21875-22.277344 23.832031l-24.589843 65.28125c-9.878907-27.285156-32.964844-47.667969-61.261719-54.09375-28.300781-6.429687-57.921875 1.984375-78.621094 22.328125v-41.515625c-.003906-11.335937-4.507812-22.207031-12.523437-30.226562-2.691407-2.578125-5.707031-4.800781-8.964844-6.613281 2.886719-4.230469 4.429687-9.234376 4.421875-14.359376-.0625-14.113281-11.488281-25.535156-25.597656-25.601562h-18.640625c-3.589844-10.199219-13.214844-17.03125-24.027344-17.066406h-68.265625c-10.8125.035156-20.433594 6.867187-24.027344 17.066406h-18.640625c-14.109375.066406-25.535156 11.488281-25.597656 25.601562-.003906 5.128907 1.542969 10.140626 4.4375 14.375-13.25 7.535157-21.453125 21.582032-21.5039062 36.824219zm383.6875002 108.765625 35.699219-94.78125c4.34375-11.570312 16.339843-18.382812 28.503906-16.175781 12.160156 2.203125 21.003906 12.785156 21.015625 25.144531.015625 3.117188-.554688 6.207032-1.675781 9.113282l-125.917969 334.867187h-54.726563l80.25-213.347656c9.824219-13 15.679688-28.566407 16.851563-44.820313zm-145.4375-38.1875.011719-.023437c16.566406-31.375 54.386718-44.847657 87.058593-31.011719l-1.195312 1.191406c-2.210938 2.144532-3.09375 5.316406-2.3125 8.292969.78125 2.980469 3.105469 5.304687 6.085937 6.085937 2.976563.785157 6.148438-.101562 8.292969-2.308593l4.289063-4.292969c4.558593 3.449219 8.621093 7.511719 12.070312 12.074219l-4.289062 4.289062c-2.210938 2.144531-3.09375 5.3125-2.3125 8.292969.78125 2.976562 3.109374 5.304688 6.085937 6.085938 2.980469.78125 6.148437-.101563 8.292969-2.3125l1.195312-1.195313c10.914063 25.714844 5.054688 55.488281-14.789062 75.152344-19.84375 19.660156-49.667969 25.246093-75.285156 14.097656 1.78125-3.738281.605468-8.214844-2.785157-10.59375-3.386719-2.378906-7.996093-1.964844-10.90625.976563l-.914062.910156c-4.558594-3.449219-8.621094-7.507813-12.070313-12.070313l.910156-.910156c2.945313-2.910156 3.359376-7.519531.980469-10.910156-2.378906-3.386719-6.855469-4.5625-10.59375-2.785157-8.265625-18.988281-7.464843-40.707031 2.179688-59.035156zm-59.050781-130.3125h17.066406c2.296875-.003906 4.496094.9375 6.074218 2.609375 1.589844 1.558594 2.480469 3.699219 2.457032 5.925781-.003906 4.710938-3.820313 8.527344-8.53125 8.53125h-17.066406zm-8.535157 59.734375c0-14.136719 11.460938-25.601562 25.601563-25.601562 14.136718 0 25.597656 11.464843 25.597656 25.601562v65.332031c-11.375 23.402344-11.375 50.734376 0 74.136719v227.464844h-51.199219zm-93.867187-68.265625c.007812-4.710937 3.824218-8.527344 8.535156-8.535156h68.265625c4.710937.007812 8.527344 3.824219 8.535156 8.535156v34.132813c-.007812 4.710937-3.824219 8.527343-8.535156 8.53125h-68.265625c-4.710938-.003907-8.527344-3.820313-8.535156-8.53125zm-40.058594 10.992188c1.558594-1.59375 3.699219-2.480469 5.925781-2.460938h17.066407v17.066406h-17.066407c-4.710937-.003906-8.527343-3.820312-8.53125-8.53125-.007812-2.296874.9375-4.496093 2.605469-6.074218zm-19.671875 57.273437c0-14.136719 11.460937-25.601562 25.597656-25.601562 14.140625 0 25.601563 11.464843 25.601563 25.601562l.011718 366.933594h-51.210937zm0 0"/><path d="m424.03125 13.203125c-5.605469-3.914063-12.5625-5.375-19.265625-4.046875l-18.28125 3.53125c-5.40625-9.402344-16.207031-14.3125-26.847656-12.203125l-67.03125 12.9375c-10.609375 2.082031-18.761719 10.613281-20.359375 21.308594l-18.292969 3.535156c-13.851563 2.730469-22.910156 16.113281-20.300781 29.988281 2.347656 12.019532 12.863281 20.710938 25.113281 20.75 1.636719 0 3.265625-.15625 4.875-.46875l18.226563-3.515625c5.46875 9.367188 16.257812 14.257813 26.90625 12.191407l67.027343-12.9375c10.609375-2.082032 18.761719-10.617188 20.359375-21.308594l18.300782-3.53125c13.867187-2.707032 22.9375-16.113282 20.285156-29.992188-1.230469-6.640625-5.09375-12.496094-10.714844-16.238281zm-163.621094 58.574219c-3.40625.679687-6.878906-.789063-8.769531-3.699219-1.890625-2.914063-1.816406-6.683594.1875-9.519531 1.226563-1.859375 3.160156-3.132813 5.351563-3.535156l16.75-3.234376 3.238281 16.753907zm112.160156-4.265625-67.027343 12.941406c-2.222657.433594-4.527344-.039063-6.402344-1.304687-1.875-1.269532-3.171875-3.234376-3.597656-5.457032l-6.46875-33.515625c-.886719-4.625 2.136719-9.097656 6.761719-9.992187l67.027343-12.9375c.539063-.105469 1.089844-.160156 1.636719-.160156 4.085938.011718 7.589844 2.910156 8.359375 6.921874l6.472656 33.511719c.886719 4.628907-2.136719 9.101563-6.761719 10zm38.652344-24.84375-16.753906 3.234375-3.234375-16.753906 16.753906-3.234376c2.261719-.445312 4.605469.070313 6.472657 1.421876 1.855468 1.226562 3.128906 3.15625 3.527343 5.34375.886719 4.621093-2.132812 9.09375-6.757812 9.992187zm0 0"/><path d="m281.902344 231.589844c2.261718.003906 4.433594-.894532 6.03125-2.5l6.035156-6.03125c2.210938-2.144532 3.09375-5.3125 2.3125-8.292969s-3.109375-5.304687-6.085938-6.085937c-2.980468-.785157-6.148437.101562-8.292968 2.3125l-6.035156 6.03125c-2.4375 2.441406-3.167969 6.109374-1.847657 9.300781 1.320313 3.1875 4.429688 5.265625 7.882813 5.265625zm0 0"/><path d="m306.039062 207.453125c2.265626.003906 4.433594-.898437 6.03125-2.5l6.035157-6.035156c2.203125-2.144531 3.078125-5.308594 2.296875-8.28125-.785156-2.972657-3.105469-5.296875-6.078125-6.078125-2.972657-.785156-6.140625.09375-8.285157 2.292968l-6.03125 6.035157c-2.441406 2.441406-3.171874 6.109375-1.851562 9.296875 1.320312 3.191406 4.433594 5.269531 7.882812 5.269531zm0 0"/><path d="m257.769531 255.722656c2.261719.003906 4.433594-.894531 6.03125-2.5l6.035157-6.03125c2.21875-2.144531 3.105468-5.316406 2.324218-8.300781s-3.109375-5.3125-6.09375-6.09375-6.15625.109375-8.296875 2.328125l-6.035156 6.03125c-2.441406 2.441406-3.167969 6.113281-1.847656 9.300781 1.320312 3.1875 4.429687 5.265625 7.882812 5.265625zm0 0"/><path d="m281.90625 259.261719-6.035156 6.035156c-2.199219 2.144531-3.078125 5.308594-2.292969 8.28125.78125 2.972656 3.105469 5.296875 6.078125 6.078125 2.972656.785156 6.136719-.09375 8.28125-2.292969l6.035156-6.035156c3.234375-3.347656 3.1875-8.671875-.105468-11.960937-3.289063-3.292969-8.613282-3.339844-11.960938-.105469zm0 0"/><path d="m306.039062 255.726562c2.261719.003907 4.433594-.894531 6.03125-2.496093l6.035157-6.035157c2.210937-2.144531 3.09375-5.3125 2.3125-8.292968-.78125-2.976563-3.109375-5.304688-6.085938-6.085938-2.980469-.78125-6.148437.101563-8.292969 2.3125l-6.03125 6.03125c-2.441406 2.441406-3.171874 6.113282-1.851562 9.300782s4.433594 5.265624 7.882812 5.265624zm0 0"/><path d="m330.175781 231.589844c2.265625.003906 4.4375-.894532 6.035157-2.5l6.03125-6.03125c3.261718-3.34375 3.226562-8.691406-.074219-11.992188-3.304688-3.304687-8.648438-3.335937-11.992188-.074218l-6.03125 6.03125c-2.441406 2.441406-3.171875 6.109374-1.851562 9.300781 1.320312 3.1875 4.433593 5.265625 7.882812 5.265625zm0 0"/></svg>