<svg height="511pt" viewBox="0 -11 511.998 511" width="511pt" xmlns="http://www.w3.org/2000/svg"><path d="m497.183594 138.765625c-1.636719-3.800781-6.046875-5.554687-9.847656-3.917969-3.804688 1.640625-5.558594 6.050782-3.921876 9.851563 9.019532 20.933593 13.59375 43.203125 13.59375 66.199219v126.441406h-64.96875v-126.441406c0-23.917969-8.421874-47.199219-23.707031-65.550782-1.96875-2.363281-5.175781-3.28125-8.089843-2.328125-2.921876.953125-4.960938 3.59375-5.152344 6.65625l-9.601563 153.480469c-.023437.378906-.03125.765625-.050781 1.144531l-102.238281-.113281c-6.371094-5.199219-14.496094-8.320312-23.34375-8.320312-8.777344 0-16.847657 3.078124-23.195313 8.210937l-81.449218-.089844 88.902343-120.347656s0 0 .003907-.003906l78.503906-106.171875c.039062-.050782.074218-.101563.109375-.148438l5.902343-8.40625c4.625-6.589844 5.1875-15.117187 1.476563-22.257812s-11.019531-11.578125-19.066406-11.578125h-102.414063c-8.050781 0-15.355468 4.4375-19.066406 11.578125-3.714844 7.144531-3.148438 15.671875 1.480469 22.261718l5.101562 7.261719c.035157.050781.070313.101563.109375.148438l34.808594 47.027343c2.464844 3.328126 7.160156 4.023438 10.488281 1.5625 3.328125-2.464843 4.023438-7.15625 1.5625-10.484374l-34.753906-46.949219-5.046875-7.183594c-2.046875-2.914063-.996094-5.679687-.449219-6.730469.550781-1.050781 2.207031-3.5 5.765625-3.5h102.414063c3.558593 0 5.214843 2.449219 5.765625 3.5.546875 1.050782 1.597656 3.816406-.449219 6.730469l-5.847656 8.328125-72.425781 97.949219-62.886719-84.949219c-5.25-7.089844-8.140625-15.851562-8.140625-24.671875 0-22.859375 18.601562-41.460937 41.464844-41.460937h102.671874c22.863282 0 41.460938 18.601562 41.460938 41.460937 0 8.820313-2.886719 17.582031-8.140625 24.675781l-140.796875 190.449219c-2.460938 3.328125-1.757812 8.023437 1.570312 10.484375 3.332032 2.460938 8.027344 1.757812 10.488282-1.570312l140.792968-190.449219c7.144532-9.652344 11.082032-21.582031 11.082032-33.589844 0-3.175781-.277344-6.289063-.785156-9.324219 40.054687 9.167969 75.960937 33.179688 99.808593 67.125 1.460938 2.074219 3.78125 3.1875 6.140625 3.1875 1.488282 0 2.992188-.445312 4.304688-1.367187 3.386718-2.378907 4.203125-7.054688 1.824218-10.441407-27.703124-39.4375-70.363281-66.566406-117.519531-74.902343-9.375-18.226563-28.363281-30.730469-50.230469-30.730469h-102.675781c-21.351562 0-39.96875 11.914062-49.5625 29.445312-42.964843 5.53125-82.53125 26.210938-111.796875 58.535157-30.410156 33.59375-47.160156 77.066406-47.160156 122.417969v128.941406c0 6.886718 5.605469 12.492187 12.492188 12.492187h69.96875c6.890624 0 12.492187-5.605469 12.492187-12.492187v-128.941406c0-13.007813 2.917969-25.792969 8.40625-37.410157l8.1875 131.246094c.027344.449219.042969.902344.0625 1.351563-.648437.441406-1.265625.941406-1.835937 1.511718-2.359376 2.355469-3.664063 5.492188-3.667969 8.828125l-.027344 24.988281c-.003906 2.433594.703125 4.699219 1.910156 6.625l-7.8125 58.605469-55.152343 39.660157c-2.707032 1.953124-4.496094 4.839843-5.03125 8.136718-.535157 3.292969.246093 6.597656 2.195312 9.304688l14.609375 20.277344c2.4375 3.386718 6.269531 5.1875 10.152344 5.1875 2.527343 0 5.078125-.765626 7.28125-2.351563l70.320312-50.5625h249.492188c.742187 0 1.472656-.050781 2.195312-.132813 7.210938 6.832032 14.15625 13.976563 20.796875 21.429688 2.464844 2.765625 5.914063 4.183594 9.375 4.183594 2.90625 0 5.816406-1 8.160156-3.03125l18.878907-16.371094c2.542969-2.203125 4.0625-5.265625 4.28125-8.625.21875-3.367188-.898438-6.613281-3.144531-9.136719-14.285157-16.0625-29.765626-30.882812-46.242188-44.339843l-4.449219-33.582032c.652344-1.523437.996094-3.175781 1-4.882812l.027344-24.988282c.003906-3.90625-1.796875-7.398437-4.609375-9.691406.035156-1.015625.074219-2.027344.136719-3.035156l8.171875-130.632812c5.5 11.625 8.421875 24.421874 8.421875 37.4375v128.941406c0 6.890625 5.605469 12.496094 12.492187 12.496094h69.96875c6.890625 0 12.492188-5.605469 12.492188-12.496094v-128.941406c.003906-25.046876-4.980469-49.3125-14.8125-72.132813zm-192.417969 180.4375 85.164063.097656-.023438 19.988281-42.503906-.054687c-13.808594-7.539063-28.050782-14.230469-42.636719-20.03125zm-22.921875 13.644531c0 12.121094-9.863281 21.984375-21.984375 21.984375-12.125 0-21.988281-9.863281-21.988281-21.984375 0-12.125 9.863281-21.988281 21.988281-21.988281 12.121094 0 21.984375 9.863281 21.984375 21.988281zm-87.640625 6.183594-73.128906-.097656.023437-19.992188 100.886719.113282zm-90.546875-193.667969c-15.277344 18.351563-23.695312 41.625-23.695312 65.535157v126.441406h-64.96875v-126.441406c0-82.015626 58.621093-150.96875 138.152343-164.90625-.703125 3.546874-1.078125 7.210937-1.078125 10.960937 0 12.011719 3.9375 23.941406 11.082032 33.59375l65.617187 88.636719-92.179687 124.785156-10.066407-.011719c-.003906-.050781-.003906-.101562-.007812-.152343l-9.613281-154.113282c-.191407-3.0625-2.230469-5.703125-5.152344-6.65625s-6.125-.03125-8.089844 2.328125zm18.671875 208.566407 51.0625.066406-56.484375 40.617187zm-54.828125 119.300781-11.6875-16.21875 55.757812-40.097657c.007813-.003906.011719-.007812.019532-.011718l111.496094-80.175782c.746093 7.144532 3.542968 13.683594 7.78125 19.035157zm97.902344-51.929688 77.402344-55.660156c5.105468 2.667969 10.90625 4.183594 17.054687 4.183594 7.683594 0 14.824219-2.355469 20.746094-6.382813 35.691406 13.414063 69.214843 33.078125 98.929687 57.859375zm276.3125 11.40625-15.109375 13.097657c-6.777344-7.507813-13.855469-14.707032-21.191407-21.601563-.8125-1.5-2.070312-2.625-3.535156-3.277344-32.464844-29.710937-69.933594-53.308593-110.195312-69.277343 3.269531-5.511719 5.15625-11.941407 5.15625-18.804688 0-.21875-.015625-.433594-.019532-.652344 54.835938 21.34375 104.667969 55.871094 144.894532 100.515625zm-69.070313-78.445312 17.136719.023437 1.714844 12.964844c-6.164063-4.511719-12.449219-8.847656-18.851563-12.988281zm0 0"/></svg>