<?xml version="1.0" encoding="iso-8859-1"?>
<!-- Generator: Adobe Illustrator 19.0.0, SVG Export Plug-In . SVG Version: 6.00 Build 0)  -->
<svg version="1.1" id="Layer_1" xmlns="http://www.w3.org/2000/svg" xmlns:xlink="http://www.w3.org/1999/xlink" x="0px" y="0px"
	 viewBox="0 0 512 512" style="enable-background:new 0 0 512 512;" xml:space="preserve">
<g>
	<g>
		<path d="M206.124,32.507L176.015,2.399c-2.969-2.97-7.783-2.97-10.753,0l-30.109,30.109c-2.97,2.97-2.97,7.784,0,10.753
			c1.484,1.485,3.431,2.227,5.376,2.227c1.946,0,3.892-0.742,5.377-2.227l24.732-24.732l24.732,24.732
			c2.97,2.97,7.784,2.97,10.753,0C209.094,40.291,209.094,35.476,206.124,32.507z"/>
	</g>
</g>
<g>
	<g>
		<path d="M206.124,71.384l-30.109-30.11c-1.425-1.427-3.36-2.227-5.376-2.227c-2.017,0-3.951,0.801-5.377,2.227l-30.109,30.109
			c-2.97,2.97-2.97,7.784,0,10.753c2.97,2.97,7.784,2.97,10.753,0l24.732-24.732l24.732,24.733c1.484,1.485,3.431,2.227,5.377,2.227
			c1.946,0,3.892-0.742,5.376-2.227C209.094,79.167,209.094,74.353,206.124,71.384z"/>
	</g>
</g>
<g>
	<g>
		<path d="M206.124,110.259l-30.109-30.109c-2.969-2.97-7.783-2.97-10.753,0l-30.109,30.109c-2.97,2.97-2.97,7.784,0,10.753
			c1.484,1.485,3.431,2.227,5.376,2.227c1.946,0,3.892-0.742,5.377-2.227l24.732-24.732l24.732,24.732
			c2.97,2.97,7.784,2.97,10.753,0C209.094,118.043,209.094,113.228,206.124,110.259z"/>
	</g>
</g>
<g>
	<g>
		<path d="M206.124,149.135l-30.109-30.109c-2.969-2.97-7.783-2.97-10.753,0l-30.109,30.109c-2.97,2.97-2.97,7.784,0,10.753
			c1.484,1.485,3.431,2.227,5.376,2.227c1.946,0,3.892-0.742,5.377-2.227l24.732-24.732l24.732,24.732
			c2.97,2.97,7.784,2.97,10.753,0C209.094,156.918,209.094,152.104,206.124,149.135z"/>
	</g>
</g>
<g>
	<g>
		<path d="M206.124,188.011l-30.109-30.109c-1.425-1.427-3.36-2.227-5.376-2.227c-2.017,0-3.951,0.801-5.377,2.227l-30.109,30.109
			c-2.97,2.97-2.97,7.784,0,10.753c2.97,2.97,7.784,2.97,10.753,0l24.732-24.732l24.732,24.732c1.484,1.485,3.431,2.227,5.377,2.227
			c1.946,0,3.892-0.742,5.376-2.227C209.094,195.795,209.094,190.98,206.124,188.011z"/>
	</g>
</g>
<g>
	<g>
		<path d="M206.124,226.887l-30.109-30.109c-2.969-2.97-7.783-2.97-10.753,0l-30.109,30.109c-2.97,2.97-2.97,7.784,0,10.753
			c1.484,1.485,3.431,2.227,5.376,2.227c1.946,0,3.892-0.742,5.377-2.227l24.732-24.732l24.732,24.732
			c2.97,2.97,7.784,2.97,10.753,0C209.094,234.67,209.094,229.856,206.124,226.887z"/>
	</g>
</g>
<g>
	<g>
		<path d="M206.124,265.763l-30.109-30.109c-1.425-1.427-3.36-2.227-5.376-2.227c-2.017,0-3.951,0.801-5.377,2.227l-30.109,30.109
			c-2.97,2.97-2.97,7.784,0,10.753c2.97,2.97,7.784,2.97,10.753,0l24.732-24.732l24.732,24.732c1.484,1.485,3.431,2.227,5.377,2.227
			c1.946,0,3.892-0.742,5.376-2.227C209.094,273.547,209.094,268.732,206.124,265.763z"/>
	</g>
</g>
<g>
	<g>
		<path d="M206.124,304.639l-30.109-30.109c-2.969-2.97-7.783-2.97-10.753,0l-30.109,30.109c-2.97,2.97-2.97,7.784,0,10.753
			c1.484,1.485,3.431,2.227,5.376,2.227c1.946,0,3.892-0.742,5.377-2.227l24.732-24.732l24.732,24.732
			c2.97,2.97,7.784,2.97,10.753,0C209.094,312.422,209.094,307.608,206.124,304.639z"/>
	</g>
</g>
<g>
	<g>
		<path d="M206.124,343.516l-30.109-30.109c-1.425-1.427-3.36-2.227-5.376-2.227c-2.017,0-3.951,0.801-5.377,2.227l-30.109,30.109
			c-2.97,2.97-2.97,7.784,0,10.753c2.97,2.97,7.784,2.97,10.753,0l24.732-24.732l24.732,24.732c1.484,1.485,3.431,2.227,5.377,2.227
			c1.946,0,3.892-0.742,5.376-2.227C209.094,351.299,209.094,346.484,206.124,343.516z"/>
	</g>
</g>
<g>
	<g>
		<path d="M206.124,382.392l-30.109-30.11c-2.969-2.97-7.783-2.97-10.753,0l-30.109,30.109c-2.97,2.97-2.97,7.784,0,10.753
			c1.484,1.485,3.431,2.227,5.376,2.227c1.946,0,3.892-0.742,5.377-2.227l24.732-24.732l24.732,24.733
			c2.97,2.97,7.784,2.97,10.753,0C209.094,390.175,209.094,385.361,206.124,382.392z"/>
	</g>
</g>
<g>
	<g>
		<path d="M206.124,421.268l-30.109-30.109c-2.969-2.97-7.783-2.97-10.753,0l-30.109,30.109c-2.97,2.97-2.97,7.784,0,10.753
			c1.484,1.485,3.431,2.227,5.376,2.227c1.946,0,3.892-0.742,5.377-2.227l24.732-24.732l24.732,24.732
			c2.97,2.97,7.784,2.97,10.753,0C209.094,429.051,209.094,424.236,206.124,421.268z"/>
	</g>
</g>
<g>
	<g>
		<path d="M206.124,460.143l-30.109-30.109c-1.425-1.427-3.36-2.227-5.376-2.227c-2.017,0-3.951,0.801-5.377,2.227l-30.109,30.109
			c-2.97,2.97-2.97,7.784,0,10.753c2.97,2.97,7.784,2.97,10.753,0l24.732-24.732l24.732,24.732c1.484,1.485,3.431,2.227,5.377,2.227
			c1.946,0,3.892-0.742,5.376-2.227C209.094,467.926,209.094,463.112,206.124,460.143z"/>
	</g>
</g>
<g>
	<g>
		<path d="M206.124,499.02l-30.109-30.109c-2.969-2.97-7.783-2.97-10.753,0l-30.109,30.109c-2.97,2.97-2.97,7.784,0,10.753
			c1.484,1.485,3.431,2.227,5.376,2.227c1.946,0,3.892-0.742,5.377-2.227l24.732-24.732l24.732,24.732
			c2.97,2.97,7.784,2.97,10.753,0C209.094,506.803,209.094,501.988,206.124,499.02z"/>
	</g>
</g>
<g>
	<g>
		<path d="M376.846,468.911c-2.969-2.97-7.783-2.97-10.753,0l-24.732,24.732l-24.732-24.732c-2.97-2.97-7.784-2.97-10.753,0
			c-2.97,2.97-2.97,7.784,0,10.753l30.109,30.109c1.484,1.484,3.431,2.227,5.377,2.227c1.946,0,3.892-0.742,5.376-2.227
			l30.109-30.109C379.816,476.694,379.816,471.879,376.846,468.911z"/>
	</g>
</g>
<g>
	<g>
		<path d="M376.846,430.034c-2.969-2.969-7.783-2.969-10.753,0l-24.732,24.732l-24.732-24.732c-2.97-2.97-7.784-2.97-10.753,0
			c-2.97,2.97-2.97,7.784,0,10.753l30.109,30.109c1.425,1.427,3.36,2.227,5.377,2.227c2.017,0,3.951-0.801,5.376-2.227
			l30.109-30.109C379.816,437.818,379.816,433.003,376.846,430.034z"/>
	</g>
</g>
<g>
	<g>
		<path d="M376.846,391.159c-2.969-2.97-7.783-2.97-10.753,0l-24.732,24.732l-24.732-24.732c-2.97-2.97-7.784-2.97-10.753,0
			c-2.97,2.97-2.97,7.784,0,10.753l30.109,30.109c1.484,1.484,3.431,2.227,5.377,2.227c1.946,0,3.892-0.742,5.376-2.227
			l30.109-30.109C379.816,398.942,379.816,394.127,376.846,391.159z"/>
	</g>
</g>
<g>
	<g>
		<path d="M376.846,352.282c-2.969-2.969-7.783-2.969-10.753,0l-24.732,24.732l-24.732-24.732c-2.97-2.97-7.784-2.97-10.753,0
			c-2.97,2.97-2.97,7.784,0,10.753l30.109,30.109c1.484,1.484,3.431,2.227,5.377,2.227c1.946,0,3.892-0.742,5.376-2.227
			l30.109-30.109C379.816,360.066,379.816,355.251,376.846,352.282z"/>
	</g>
</g>
<g>
	<g>
		<path d="M376.846,313.407c-2.969-2.97-7.783-2.97-10.753,0l-24.732,24.732l-24.732-24.732c-2.97-2.97-7.784-2.97-10.753,0
			c-2.97,2.97-2.97,7.784,0,10.753l30.109,30.109c1.425,1.427,3.36,2.227,5.377,2.227c2.017,0,3.951-0.801,5.376-2.227
			l30.109-30.109C379.816,321.19,379.816,316.375,376.846,313.407z"/>
	</g>
</g>
<g>
	<g>
		<path d="M376.846,274.53c-2.969-2.969-7.783-2.969-10.753,0l-24.732,24.732l-24.732-24.732c-2.97-2.97-7.784-2.97-10.753,0
			c-2.97,2.97-2.97,7.784,0,10.753l30.109,30.109c1.484,1.484,3.431,2.227,5.377,2.227c1.946,0,3.892-0.742,5.376-2.227
			l30.109-30.109C379.816,282.314,379.816,277.499,376.846,274.53z"/>
	</g>
</g>
<g>
	<g>
		<path d="M376.846,235.655c-2.969-2.97-7.783-2.97-10.753,0l-24.732,24.732l-24.732-24.732c-2.97-2.97-7.784-2.97-10.753,0
			c-2.97,2.97-2.97,7.784,0,10.753l30.109,30.109c1.425,1.427,3.36,2.227,5.377,2.227c2.017,0,3.951-0.801,5.376-2.227
			l30.109-30.109C379.816,243.438,379.816,238.623,376.846,235.655z"/>
	</g>
</g>
<g>
	<g>
		<path d="M376.846,196.778c-2.969-2.969-7.783-2.969-10.753,0l-24.732,24.732l-24.732-24.732c-2.97-2.97-7.784-2.97-10.753,0
			c-2.97,2.97-2.97,7.784,0,10.753l30.109,30.109c1.484,1.484,3.431,2.227,5.377,2.227c1.946,0,3.892-0.742,5.376-2.227
			l30.109-30.109C379.816,204.562,379.816,199.747,376.846,196.778z"/>
	</g>
</g>
<g>
	<g>
		<path d="M376.846,157.903c-2.969-2.97-7.783-2.97-10.753,0l-24.732,24.732l-24.732-24.732c-2.97-2.97-7.784-2.97-10.753,0
			c-2.97,2.97-2.97,7.784,0,10.753l30.109,30.109c1.425,1.426,3.36,2.227,5.377,2.227c2.017,0,3.951-0.801,5.376-2.227
			l30.109-30.109C379.816,165.686,379.816,160.871,376.846,157.903z"/>
	</g>
</g>
<g>
	<g>
		<path d="M376.846,119.026c-2.969-2.969-7.783-2.969-10.753,0l-24.732,24.732l-24.732-24.732c-2.97-2.97-7.784-2.97-10.753,0
			c-2.97,2.97-2.97,7.784,0,10.753l30.109,30.109c1.484,1.484,3.431,2.227,5.377,2.227c1.946,0,3.892-0.742,5.376-2.227
			l30.109-30.109C379.816,126.81,379.816,121.995,376.846,119.026z"/>
	</g>
</g>
<g>
	<g>
		<path d="M376.846,80.151c-2.969-2.97-7.783-2.97-10.753,0l-24.732,24.732l-24.732-24.732c-2.97-2.97-7.784-2.97-10.753,0
			c-2.97,2.97-2.97,7.784,0,10.753l30.109,30.109c1.484,1.484,3.431,2.227,5.377,2.227c1.946,0,3.892-0.742,5.376-2.227
			l30.109-30.109C379.816,87.934,379.816,83.119,376.846,80.151z"/>
	</g>
</g>
<g>
	<g>
		<path d="M376.846,41.274c-2.969-2.97-7.783-2.97-10.753,0l-24.732,24.732l-24.732-24.732c-2.97-2.97-7.784-2.97-10.753,0
			c-2.97,2.97-2.97,7.784,0,10.753l30.109,30.109c1.425,1.427,3.36,2.227,5.377,2.227c2.017,0,3.951-0.801,5.376-2.227
			l30.109-30.109C379.816,49.058,379.816,44.243,376.846,41.274z"/>
	</g>
</g>
<g>
	<g>
		<path d="M376.846,2.399c-2.97-2.97-7.784-2.97-10.753,0l-24.732,24.732L316.629,2.399c-2.97-2.97-7.784-2.97-10.753,0
			c-2.97,2.97-2.97,7.784,0,10.753l30.109,30.109c1.484,1.484,3.431,2.227,5.377,2.227c1.946,0,3.892-0.742,5.376-2.227
			l30.109-30.109C379.816,10.182,379.816,5.367,376.846,2.399z"/>
	</g>
</g>
<g>
	<g>
		<path d="M230.454,0c-4.199,0-7.604,3.405-7.604,7.604v496.792c0,4.199,3.405,7.604,7.604,7.604s7.604-3.405,7.604-7.604V7.604
			C238.058,3.405,234.653,0,230.454,0z"/>
	</g>
</g>
<g>
	<g>
		<path d="M256.052,352.824c-4.199,0-7.604,3.405-7.604,7.604v143.968c0,4.199,3.405,7.604,7.604,7.604s7.604-3.405,7.604-7.604
			V360.428C263.656,356.228,260.251,352.824,256.052,352.824z"/>
	</g>
</g>
<g>
	<g>
		<path d="M256.052,0c-4.199,0-7.604,3.405-7.604,7.604v319.368c0,4.199,3.405,7.604,7.604,7.604s7.604-3.405,7.604-7.604V7.604
			C263.656,3.405,260.251,0,256.052,0z"/>
	</g>
</g>
<g>
	<g>
		<path d="M281.651,124.717c-4.199,0-7.604,3.405-7.604,7.604v372.075c0,4.199,3.405,7.604,7.604,7.604s7.604-3.405,7.604-7.604
			V132.321C289.255,128.122,285.85,124.717,281.651,124.717z"/>
	</g>
</g>
<g>
	<g>
		<path d="M281.651,0c-4.199,0-7.604,3.405-7.604,7.604v95.823c0,4.199,3.405,7.604,7.604,7.604s7.604-3.405,7.604-7.604V7.604
			C289.255,3.405,285.85,0,281.651,0z"/>
	</g>
</g>
<g>
</g>
<g>
</g>
<g>
</g>
<g>
</g>
<g>
</g>
<g>
</g>
<g>
</g>
<g>
</g>
<g>
</g>
<g>
</g>
<g>
</g>
<g>
</g>
<g>
</g>
<g>
</g>
<g>
</g>
</svg>
