<svg id="icons" enable-background="new 0 0 64 64" height="512" viewBox="0 0 64 64" width="512" xmlns="http://www.w3.org/2000/svg"><g><path d="m59.999 28h-13.999v-8c0-.553-.447-1-1-1h-1.998v-9.008c0-1.654-1.346-3-3-3h-6.002c-.771 0-1.468.301-2 .78-.532-.479-1.229-.78-2-.78h-6.002c-1.654 0-3 1.346-3 3v9.008h-1.998c-.553 0-1 .447-1 1v8h-14c-2.206 0-4 1.794-4 4s1.795 4 4.001 4h13.999v8c0 .553.447 1 1 1h1.998v9.008c0 1.654 1.346 3 3 3h6.002c.771 0 1.468-.301 2-.78.532.479 1.229.78 2 .78h6.002c1.654 0 3-1.346 3-3v-9.008h1.998c.553 0 1-.447 1-1v-8h14c2.206 0 4-1.794 4-4s-1.795-4-4.001-4zm-55.999 6c-1.103 0-2-.897-2-2s.897-2 2.001-2h13.999v4zm16 9v-8-6-8h.998v22zm10 12.008h-6.002c-.552 0-1-.448-1-1v-10.008-24-10.008c0-.552.448-1 1-1h6.002c.552 0 1 .448 1 1v44.016c0 .552-.448 1-1 1zm11.002-1c0 .552-.448 1-1 1h-6.002c-.552 0-1-.448-1-1v-44.016c0-.552.448-1 1-1h6.002c.552 0 1 .448 1 1v10.008 24zm2.998-11.008h-.998v-22h.998v8 6zm16-9h-14v-4h14c1.103 0 2 .897 2 2s-.897 2-2 2z"/><path d="m29 11h-4c-.553 0-1 .447-1 1s.447 1 1 1h4c.553 0 1-.447 1-1s-.447-1-1-1z"/><path d="m29 15h-4c-.553 0-1 .447-1 1s.447 1 1 1h4c.553 0 1-.447 1-1s-.447-1-1-1z"/><path d="m29 19h-4c-.553 0-1 .447-1 1s.447 1 1 1h4c.553 0 1-.447 1-1s-.447-1-1-1z"/><path d="m29 23h-4c-.553 0-1 .447-1 1s.447 1 1 1h4c.553 0 1-.447 1-1s-.447-1-1-1z"/><path d="m29 27h-4c-.553 0-1 .447-1 1s.447 1 1 1h4c.553 0 1-.447 1-1s-.447-1-1-1z"/><path d="m29 31h-4c-.553 0-1 .447-1 1s.447 1 1 1h4c.553 0 1-.447 1-1s-.447-1-1-1z"/><path d="m29 35h-4c-.553 0-1 .447-1 1s.447 1 1 1h4c.553 0 1-.447 1-1s-.447-1-1-1z"/><path d="m29 39h-4c-.553 0-1 .447-1 1s.447 1 1 1h4c.553 0 1-.447 1-1s-.447-1-1-1z"/><path d="m29 43h-4c-.553 0-1 .447-1 1s.447 1 1 1h4c.553 0 1-.447 1-1s-.447-1-1-1z"/><path d="m29 47h-4c-.553 0-1 .447-1 1s.447 1 1 1h4c.553 0 1-.447 1-1s-.447-1-1-1z"/><path d="m29 51h-4c-.553 0-1 .447-1 1s.447 1 1 1h4c.553 0 1-.447 1-1s-.447-1-1-1z"/><path d="m39.01 11h-4c-.553 0-1 .447-1 1s.447 1 1 1h4c.553 0 1-.447 1-1s-.447-1-1-1z"/><path d="m39.01 15h-4c-.553 0-1 .447-1 1s.447 1 1 1h4c.553 0 1-.447 1-1s-.447-1-1-1z"/><path d="m39.01 19h-4c-.553 0-1 .447-1 1s.447 1 1 1h4c.553 0 1-.447 1-1s-.447-1-1-1z"/><path d="m39.01 23h-4c-.553 0-1 .447-1 1s.447 1 1 1h4c.553 0 1-.447 1-1s-.447-1-1-1z"/><path d="m39.01 27h-4c-.553 0-1 .447-1 1s.447 1 1 1h4c.553 0 1-.447 1-1s-.447-1-1-1z"/><path d="m39.01 31h-4c-.553 0-1 .447-1 1s.447 1 1 1h4c.553 0 1-.447 1-1s-.447-1-1-1z"/><path d="m39.01 35h-4c-.553 0-1 .447-1 1s.447 1 1 1h4c.553 0 1-.447 1-1s-.447-1-1-1z"/><path d="m39.01 39h-4c-.553 0-1 .447-1 1s.447 1 1 1h4c.553 0 1-.447 1-1s-.447-1-1-1z"/><path d="m39.01 43h-4c-.553 0-1 .447-1 1s.447 1 1 1h4c.553 0 1-.447 1-1s-.447-1-1-1z"/><path d="m39.01 47h-4c-.553 0-1 .447-1 1s.447 1 1 1h4c.553 0 1-.447 1-1s-.447-1-1-1z"/><path d="m39.01 51h-4c-.553 0-1 .447-1 1s.447 1 1 1h4c.553 0 1-.447 1-1s-.447-1-1-1z"/></g></svg>