<?xml version="1.0" encoding="iso-8859-1"?>
<!-- Generator: Adobe Illustrator 19.0.0, SVG Export Plug-In . SVG Version: 6.00 Build 0)  -->
<svg version="1.1" id="Capa_1" xmlns="http://www.w3.org/2000/svg" xmlns:xlink="http://www.w3.org/1999/xlink" x="0px" y="0px"
	 viewBox="0 0 470.001 470.001" style="enable-background:new 0 0 470.001 470.001;" xml:space="preserve">
<g>
	<path style="fill:#FFB8B4;" d="M338.981,455.001V275.055h-185.1v15c4.146,0,7.504,3.358,7.504,7.5v157.445H338.981z"/>
	<path style="fill:#FFB8B4;" d="M376.481,341.027h38.177c18.188,0,32.986-14.798,32.986-32.986V119.567l-98.041-79.703
		c-2.969-2.414-9.388-4.685-13.222-4.675l-19.443,0.055c-1.502,0-2.949-0.438-4.182-1.26L288.449,17.78l-94.863,133.542h145.395
		V87.971c0-4.142,3.357-7.5,7.5-7.5s7.5,3.358,7.5,7.5v52.744l18.364-18.364c2.931-2.93,7.679-2.929,10.607,0s2.929,7.678,0,10.606
		l-28.972,28.971v186.602h15C368.981,344.385,372.338,341.027,376.481,341.027z"/>
	<path style="fill:#FF8882;" d="M116.02,161.929l-28.972-28.971c-2.929-2.929-2.929-7.678,0-10.606c2.93-2.929,7.678-2.929,10.607,0
		l18.364,18.364V87.971c0-4.142,3.357-7.5,7.5-7.5s7.5,3.358,7.5,7.5v63.351h44.167l50.614-71.25l-44.25-62.292l-24.307,16.204
		c-1.232,0.821-2.68,1.26-4.16,1.26c-0.021,0-19.465-0.055-19.465-0.055c-3.858,0-10.26,2.267-13.222,4.675l-98.041,79.703v188.474
		c0,18.188,14.798,32.986,32.986,32.986H93.52c4.143,0,7.5,3.358,7.5,7.5c0,0.003,15,0.003,15,0.003V161.929z"/>
	<path style="fill:#FF8882;" d="M131.02,275.055v179.945h15.364V297.555c0-4.141,3.355-7.498,7.496-7.5v-15H131.02z"/>
	<path style="fill:#FF382E;" d="M131.02,205.689h22.5c4.143,0,7.5,3.358,7.5,7.5s-3.357,7.5-7.5,7.5h-22.5v39.367h207.961v-39.367
		H183.52c-4.143,0-7.5-3.358-7.5-7.5s3.357-7.5,7.5-7.5h155.461v-39.367H131.02V205.689z"/>
	<path style="fill:#1C1918;" d="M459.875,110.179l-100.81-81.954c-5.645-4.589-15.373-8.037-22.66-8.037h-0.067l-17.16,0.048
		L290.712,1.26c-3.375-2.25-7.926-1.41-10.274,1.897L235,67.121L189.563,3.157c-2.349-3.307-6.899-4.146-10.274-1.897
		l-28.466,18.977l-17.16-0.048h-0.066c-7.288,0-17.017,3.448-22.661,8.037l-100.81,81.954c-1.752,1.424-2.769,3.562-2.769,5.819
		v192.042c0,26.46,21.526,47.986,47.986,47.986H93.52c4.141,0,7.498-3.356,7.5-7.497c0-4.145-3.357-7.503-7.5-7.503H55.343
		c-18.188,0-32.986-14.798-32.986-32.986V119.567l98.041-79.703c2.962-2.409,9.363-4.675,13.194-4.675
		c0.027,0,19.471,0.055,19.471,0.055c1.502,0,2.949-0.438,4.182-1.26l24.307-16.204l44.25,62.292l-50.614,71.25H131.02V87.971
		c0-4.142-3.357-7.5-7.5-7.5s-7.5,3.358-7.5,7.5v52.744l-18.364-18.364c-2.93-2.929-7.678-2.929-10.607,0
		c-2.929,2.929-2.929,7.678,0,10.606l28.972,28.971v300.572c0,4.142,3.357,7.5,7.5,7.5h222.961c4.143,0,7.5-3.358,7.5-7.5V161.929
		l28.972-28.971c2.929-2.929,2.929-7.678,0-10.606s-7.677-2.93-10.607,0l-18.364,18.364V87.971c0-4.142-3.357-7.5-7.5-7.5
		s-7.5,3.358-7.5,7.5v63.351H193.586L288.449,17.78l24.307,16.204c1.232,0.822,2.68,1.26,4.16,1.26
		c0.021,0,19.465-0.055,19.465-0.055c3.834-0.009,10.253,2.261,13.222,4.675l98.041,79.703v188.474
		c0,18.188-14.798,32.986-32.986,32.986h-38.177c-4.143,0-7.5,3.358-7.5,7.5c0.002,4.144,3.359,7.5,7.5,7.5h38.177
		c26.46,0,47.986-21.526,47.986-47.986V115.999C462.644,113.741,461.627,111.603,459.875,110.179z M153.884,290.055
		c-4.145,0.002-7.5,3.359-7.5,7.5v157.445H131.02V275.055h207.961v179.945H161.384V297.555
		C161.384,293.413,158.027,290.055,153.884,290.055z M338.981,166.322v39.367H183.52c-4.143,0-7.5,3.358-7.5,7.5s3.357,7.5,7.5,7.5
		h155.461v39.367H131.02v-39.367h22.5c4.143,0,7.5-3.358,7.5-7.5s-3.357-7.5-7.5-7.5h-22.5v-39.367H338.981z"/>
</g>
<g>
</g>
<g>
</g>
<g>
</g>
<g>
</g>
<g>
</g>
<g>
</g>
<g>
</g>
<g>
</g>
<g>
</g>
<g>
</g>
<g>
</g>
<g>
</g>
<g>
</g>
<g>
</g>
<g>
</g>
</svg>
