<svg height="512" viewBox="0 0 60 61" width="512" xmlns="http://www.w3.org/2000/svg"><g id="044---Karate" fill="none"><g id="Icons" transform="translate(0 2)"><g fill="#9d27b0"><path id="Shape" d="m48.49 24.06-11.31 6.94-2.18-8h7l-7.38-17 5-2z"/><path id="Shape" d="m34 34h-3v20h-7v-26l-9-12-11-9 4-4 11 9 10 11h2c2 7.47 1.35 5 3 11z"/><path id="Shape" d="m59 25c.0066574.819561-.1927858 1.6276499-.58 2.35-.1912078.3584977-.4227057.694002-.69 1-1.0486198 1.1512901-2.5665696 1.7592068-4.12 1.65-1.0225811-.0944725-1.9938612-.4913397-2.79-1.14-1.7922752-1.4771328-2.3314254-3.9939423-1.301522-6.0756412 1.0299035-2.081699 3.3576633-3.1801285 5.6192706-2.6516363s3.8615291 2.544742 3.8622514 4.8672775z"/></g><path id="Shape" d="m59 25c.0066574.819561-.1927858 1.6276499-.58 2.35-.1912078.3584977-.4227057.694002-.69 1-1.6050276 1.7979251-4.2642383 2.1950045-6.3244812.9443858-2.060243-1.2506187-2.9351361-3.7929869-2.0807846-6.046591.8543514-2.2536042 3.1947836-3.5770282 5.5663205-3.1475393 2.371537.4294889 4.0991966 2.4896505 4.1089453 4.8997445z" fill="#ffe0b2"/><path id="Shape" d="m52.49 20.25c2.0596705.6696439 3.4540456 2.5892056 3.4540456 4.755s-1.3943751 4.0853561-3.4540456 4.755c2.0602045.6698175 4.3174014-.0632861 5.5908602-1.8158272 1.2734589-1.7525412 1.2734589-4.1258044 0-5.8783456-1.2734588-1.7525411-3.5306557-2.4856447-5.5908602-1.8158272z" fill="#dfc49c"/><path id="Shape" d="m49.22 26.43c-.1332602-.3832137-.2074423-.7844715-.22-1.19.0483905.4008748.1218679.7983211.22 1.19z" fill="#f9c795"/><path id="Shape" d="m49.37 26.84c-.0044757.0264789-.0044757.0535211 0 .08-.0664068-.148469-.1199369-.302368-.16-.46.042193.1310742.0957289.2582219.16.38z" fill="#f9c795"/><path id="Shape" d="m49.53 27.22-.14-.3c.0158719.0419342.0359758.0821419.06.12.022468.0617794.049199.1219241.08.18z" fill="#f9c795"/><path id="Shape" d="m30 54v3c0 .5522847-.4477153 1-1 1h-3c-.5522847 0-1-.4477153-1-1v-3z" fill="#ffe0b2"/><path id="Shape" d="m39.62 4-5 2-1.51-3c-.2620507-.59739682-.044625-1.29656941.51-1.64l3.14-1.26c.467692-.18253969.9982316.00999484 1.24.45z" fill="#ffe0b2"/><path id="Shape" d="m43 39c-1 5.11-.85 4.24-1 5l-4.11-1.06c-.6153387-.2249609-.9698585-.8699307-.83-1.51l.94-2.8c.1502657-.3773501.5138481-.626325.92-.63.16 0-.03 0 4.08 1z" fill="#ffe0b2"/><path id="Shape" d="m51.56 31-8.68-3.5 5.61-3.44c.76 1.74.42.88.57 1.71.0205219.1320068.0506009.2623495.09.39.0312263.1522033.0712942.3024579.12.45.2544094.7284282.6677328 1.391112 1.21 1.94z" fill="#dfc49c"/><path id="Shape" d="m49.45 27c-.003944.0399028-.003944.0800972 0 .12-.0407701-.0780548-.0774856-.1581613-.11-.24.0315743.044386.0685219.0846925.11.12z" fill="#dfc49c"/><path id="Shape" d="m49.22 26.43c-.1332602-.3832137-.2074423-.7844715-.22-1.19.0483905.4008748.1218679.7983211.22 1.19z" fill="#f9c795"/><path id="Shape" d="m49.37 26.84c-.0044757.0264789-.0044757.0535211 0 .08-.0664068-.148469-.1199369-.302368-.16-.46.042193.1310742.0957289.2582219.16.38z" fill="#f9c795"/><path id="Shape" d="m49.53 27.22-.14-.3c.0158719.0419342.0359758.0821419.06.12.022468.0617794.049199.1219241.08.18z" fill="#f9c795"/><path id="Shape" d="m54 46-12-2c.06-.29.86-4.23 1-5l6 1-2-6h-9l-.82-3 5.7-3.5 8.68 3.5c.63 1.44-.19-.28 5.3 10.93.67 1.54-1.24 4.52-2.86 4.07z" fill="#6a1b9a"/><path id="Shape" d="m38 34h-4c-1.65-6-1-3.55-3-11h4c2.61 9.58 2 7.24 3 11z" fill="#f44335"/><path id="Shape" d="m8 3-4 4-2.87-4.74c-.21539768-.50087287-.16439546-1.07650063.13571271-1.53169826s.80906309-.72890082 1.35428729-.72830174c.62 0 .38 0 5.38 3z" fill="#ffe0b2"/></g><path id="Shape" d="m54 21c-2.1972694-.0003405-4.2189728 1.2004055-5.27 3.13-9.83-22.24-7.73-17.7-9.81-22.02-.4522203-.94913296-1.5621-1.38609347-2.54-1l-3.13 1.29c-1.0769461.57591345-1.5160088 1.8931016-1 3 2 4 .41.46 8.23 18.58h-11c-10.29-11.32-9.71-10.7-9.81-10.78-11-9-10.83-8.87-11.06-9s.65.4-4.41-2.67c-.57749199-.43403182-1.30856919-.61035715-2.02042372-.48729719-.71185452.12305996-1.3413089.53458356-1.73957628 1.13729719-.51905534.77414308-.58021918 1.76805541-.16 2.6 3.14 5.22 2.88 4.82 3.07 4.98s-2.07-1.69 10.92 8.94l8.73 11.64v25.66c0 .5522847.4477153 1 1 1v2c0 1.1045695.8954305 2 2 2h3c1.1045695 0 2-.8954305 2-2v-2c.5522847 0 1-.4477153 1-1v-19h14.26l1.27 3.74c-5.58-.93-3.53-.4-8-1.66-1.0355823-.3192914-2.1414736.2183553-2.53 1.23l-.92 2.75c-.1835097.5781515-.1269086 1.2058026.1570738 1.741796.2839825.5359933.7715055.9353315 1.3529262 1.108204 5.5 1.55 1.75.67 16.16 3.07 2.48.62 5-3.21 4-5.48-5.32-11.5-4.75-9.61-5.18-10.67 2.2480383.5468097 4.6101781-.2476099 6.0709283-2.0417353s1.7598219-4.2682643.7686433-6.3587767c-.9911785-2.0905124-3.0959908-3.4248932-5.4095716-3.429488zm-4.37 10.1c0 .1.34.17-4.54-1.79l2.91-1.79c.1234189 1.346115.6977775 2.6111134 1.63 3.59zm-12.51-28.1 1.15 2.49-3.17 1.25-1.1-2.2c0-.07 0-.27 0-.28zm5.76 21.63-6.88-16.08 3.1-1.26 8.12 18.38-9.42 5.78-1.49-5.45h5.69c.3281121-.0132888.6287897-.1868207.8044432-.4642734.1756534-.2774526.2038944-.6234625.0755568-.9257266zm-39.8-21.45 3.31 2-2.19 2.22-2.2-3.58c-.12-.45.34-1.17 1.08-.64zm25.92 55.82h-3v-2h3zm2-24c-.5522847 0-1 .4477153-1 1v19h-5v-25c0-.48.64.52-9.2-12.6-.12-.16.65.49-10.31-8.48l2.58-2.57 10.24 8.38 10 11c.37.4.68.33 2 .33l.54 2h-1.85c-.5522847 0-1 .4477153-1 1s.4477153 1 1 1h2.33l.21.77-2.09 1.39c-.3223841.2564169-.4545507.6842834-.3329438 1.0778478.121607.3935643.4721037.6722933.8829438.7021522.39 0 .43-.09 2.09-1.2l.6 2.2zm3.76 0-2.45-9h1.93l2.45 9zm3.24 8.75 1-2.75 2.86.73-.61 3-3-.78c-.1030016-.0374639-.1908397-.1077345-.25-.2zm17.95.59c.1108258.7839551-.1562549 1.5740689-.72 2.13-.4.46-.77.62-.95.57s.89.14-11.09-1.85l.61-3 7.2 1.15c.3572656.0571625.7178885-.0806161.9460254-.3614359.228137-.2808199.2891287-.6620177.16-1-.1291286-.3379824-.4287598-.5814016-.7860254-.6385641l-1.52-.25-1.84-5.44c-.148943-.3989832-.5342367-.6598592-.96-.65h-8.24l-.42-1.54 4.66-2.83 7.83 3.14c.38.93-.16-.77 5.11 10.57zm-1.95-13.34c-2.209139 0-4-1.790861-4-4s1.790861-4 4-4 4 1.790861 4 4-1.790861 4-4 4z" fill="#000"/></g></svg>