<?xml version="1.0" encoding="iso-8859-1"?>
<!-- Generator: Adobe Illustrator 19.0.0, SVG Export Plug-In . SVG Version: 6.00 Build 0)  -->
<svg version="1.1" id="Capa_1" xmlns="http://www.w3.org/2000/svg" xmlns:xlink="http://www.w3.org/1999/xlink" x="0px" y="0px"
	 viewBox="0 0 512.002 512.002" style="enable-background:new 0 0 512.002 512.002;" xml:space="preserve">
<g>
	<g>
		<path d="M391.007,45c-28.949,0-52.5,23.552-52.5,52.5s23.552,52.5,52.5,52.5c28.949,0,52.5-23.552,52.5-52.5
			S419.956,45,391.007,45z M391.007,60c17.961,0,33.005,12.694,36.651,29.58c-20.154-2-38.58-11.212-52.297-26.147
			C380.127,61.236,385.424,60,391.007,60z M391.007,135c-20.678,0-37.5-16.822-37.5-37.5c0-9.663,3.675-18.483,9.699-25.138
			c16.692,18.803,39.576,30.243,64.607,32.298C424.461,121.924,409.236,135,391.007,135z"/>
	</g>
</g>
<g>
	<g>
		<path d="M466.007,345c4.142,0,7.5-3.357,7.5-7.5v-45c0-18.11-12.904-33.261-30-36.745V192.5c0-15.163-12.336-27.5-27.5-27.5h-50
			c-15.164,0-27.5,12.337-27.5,27.5v2.5h-30.005v-22.452c0-0.097,0-165.048,0-165.048c0-4.143-3.358-7.5-7.5-7.5
			c-4.142,0-7.5,3.357-7.5,7.5V165h-7.5c-12.407,0-22.5,10.094-22.5,22.5s10.093,22.5,22.5,22.5h7.5v15h-7.498
			c-12.407,0-22.5,10.094-22.5,22.5s10.093,22.5,22.5,22.5h7.498v127.5c0,4.143,3.358,7.5,7.5,7.5c4.142,0,7.5-3.357,7.5-7.5V270
			h30.005v219.095l-24.872,8.29c-3.93,1.31-6.053,5.558-4.744,9.487c1.31,3.929,5.557,6.049,9.487,4.743l30-10
			c3.063-1.021,5.128-3.887,5.128-7.115v-59.926c13.943-1.561,27.063-7.444,37.518-16.801c10.194,9.131,23.169,15.21,37.482,16.8
			V494.5c0,3.229,2.066,6.095,5.128,7.115l30,10c0.787,0.262,1.586,0.387,2.373,0.387c3.14,0,6.066-1.987,7.114-5.13
			c1.311-3.93-0.812-8.178-4.742-9.487l-24.872-8.29V345H466.007z M443.507,271.29c8.73,3.096,15,11.433,15,21.21V330h-15V271.29z
			 M293.501,255h-7.498c-4.135,0-7.5-3.364-7.5-7.5s3.365-7.5,7.5-7.5h7.498V255z M293.502,195h-7.5c-4.136,0-7.5-3.364-7.5-7.5
			s3.364-7.5,7.5-7.5h7.5V195z M338.507,255h-30.005v-22.452c0-0.097,0-22.548,0-22.548h30.005V255z M353.507,300h15v67.5
			c0,9.777-6.271,18.114-15,21.21V300z M353.507,419.444v-15.199c7.825-1.595,14.768-5.638,20.001-11.286
			c1.984,4.852,4.518,9.419,7.523,13.632C373.315,413.5,363.732,417.966,353.507,419.444z M428.507,388.71
			c-8.729-3.096-15-11.433-15-21.21v-45c0-4.143-3.358-7.5-7.5-7.5c-4.142,0-7.5,3.357-7.5,7.5v45c0,18.11,12.904,33.261,30,36.745
			v15.21c-25.407-3.651-45-25.554-45-51.955V300h45V388.71z M428.507,285h-75v-15h75V285z M428.507,255h-75v-45h52.5
			c4.142,0,7.5-3.357,7.5-7.5s-3.358-7.5-7.5-7.5h-52.5v-2.5c0-6.893,5.607-12.5,12.5-12.5h50c6.893,0,12.5,5.607,12.5,12.5V255z"/>
	</g>
</g>
<g>
	<g>
		<path d="M135.997,97.799c-3.519,0-6.833-1.725-8.866-4.614c-1.405-1.997-3.693-3.185-6.134-3.185
			c-2.441,0-4.729,1.188-6.134,3.185c-2.033,2.89-5.348,4.614-8.866,4.614c-4.142,0-7.5,3.357-7.5,7.5s3.358,7.5,7.5,7.5
			c5.441,0,10.673-1.725,15-4.811c4.327,3.086,9.559,4.811,15,4.811c4.142,0,7.5-3.357,7.5-7.5S140.139,97.799,135.997,97.799z"/>
	</g>
</g>
<g>
	<g>
		<path d="M120.997,45c-28.948,0-52.5,23.552-52.5,52.5s23.551,52.5,52.5,52.5c28.949,0,52.5-23.552,52.5-52.5
			S149.945,45,120.997,45z M120.997,135c-20.678,0-37.5-16.822-37.5-37.5s16.822-37.5,37.5-37.5c20.678,0,37.5,16.822,37.5,37.5
			S141.675,135,120.997,135z"/>
	</g>
</g>
<g>
	<g>
		<path d="M225.998,225H218.5v-15h7.502c12.407,0,22.5-10.094,22.5-22.5s-10.093-22.5-22.5-22.5h-7.5V7.5c0-4.143-3.358-7.5-7.5-7.5
			c-4.142,0-7.5,3.357-7.5,7.5v164.952c0,0.097,0,22.548,0,22.548h-30.005v-2.5c0-15.163-12.336-27.5-27.5-27.5h-50
			c-15.164,0-27.5,12.337-27.5,27.5v63.255c-17.096,3.484-30,18.635-30,36.745v45c0,4.143,3.358,7.5,7.5,7.5h22.5v144.095
			l-24.872,8.29c-3.93,1.31-6.053,5.558-4.744,9.487c1.31,3.929,5.556,6.049,9.487,4.743l30-10c3.063-1.021,5.128-3.887,5.128-7.115
			v-59.926c13.943-1.561,27.063-7.444,37.518-16.801c10.194,9.131,23.169,15.21,37.482,16.8V494.5c0,3.229,2.066,6.095,5.128,7.115
			l30,10c0.787,0.262,1.586,0.387,2.373,0.387c3.14,0,6.066-1.987,7.114-5.13c1.31-3.93-0.814-8.178-4.744-9.487l-24.872-8.29V270
			H203.5v127.5c0,4.143,3.358,7.5,7.5,7.5c4.142,0,7.5-3.357,7.5-7.5V270h7.498c12.407,0,22.5-10.094,22.5-22.5
			S238.405,225,225.998,225z M218.502,180h7.5c4.136,0,7.5,3.364,7.5,7.5s-3.364,7.5-7.5,7.5h-7.5V180z M68.497,330h-15v-37.5
			c0-9.777,6.271-18.114,15-21.21V330z M83.497,300h15v67.5c0,9.777-6.271,18.114-15,21.21V300z M83.497,419.445v-15.2
			c7.825-1.595,14.768-5.638,20.001-11.286c1.984,4.852,4.519,9.419,7.523,13.633C103.305,413.501,93.721,417.967,83.497,419.445z
			 M158.497,388.71c-8.729-3.096-15-11.433-15-21.21v-45c0-4.143-3.358-7.5-7.5-7.5c-4.142,0-7.5,3.357-7.5,7.5v45
			c0,18.11,12.904,33.261,30,36.745v15.21c-25.408-3.651-45-25.554-45-51.955V300h45V388.71z M158.497,285h-75v-15h75V285z
			 M158.497,195h-52.5c-4.142,0-7.5,3.357-7.5,7.5s3.358,7.5,7.5,7.5h52.5v45h-75v-62.5c0-6.893,5.607-12.5,12.5-12.5h50
			c6.893,0,12.5,5.607,12.5,12.5V195z M203.502,232.452c0,0.097,0,22.548,0,22.548h-30.005v-45h30.005V232.452z M226,255h-7.498v-15
			H226c4.135,0,7.5,3.364,7.5,7.5S230.134,255,226,255z"/>
	</g>
</g>
<g>
</g>
<g>
</g>
<g>
</g>
<g>
</g>
<g>
</g>
<g>
</g>
<g>
</g>
<g>
</g>
<g>
</g>
<g>
</g>
<g>
</g>
<g>
</g>
<g>
</g>
<g>
</g>
<g>
</g>
</svg>
