<?xml version="1.0" encoding="iso-8859-1"?>
<!-- Generator: Adobe Illustrator 19.0.0, SVG Export Plug-In . SVG Version: 6.00 Build 0)  -->
<svg version="1.1" id="Capa_1" xmlns="http://www.w3.org/2000/svg" xmlns:xlink="http://www.w3.org/1999/xlink" x="0px" y="0px"
	 viewBox="0 0 512.002 512.002" style="enable-background:new 0 0 512.002 512.002;" xml:space="preserve">
<path style="fill:#B9D171;" d="M466.007,292.5v45h-45l15-75C452.576,262.5,466.007,275.931,466.007,292.5z"/>
<polygon style="fill:#9DB55F;" points="391.007,307.5 436.007,292.5 436.007,262.5 391.007,247.5 "/>
<polygon style="fill:#B9D171;" points="406.007,307.5 346.007,292.5 346.007,262.5 406.007,247.5 "/>
<g>
	<path style="fill:#9DB55F;" d="M45.997,292.5v45h45l-15-75C59.428,262.5,45.997,275.931,45.997,292.5z"/>
	<polygon style="fill:#9DB55F;" points="120.997,307.5 165.997,292.5 165.997,262.5 120.997,247.5 	"/>
</g>
<polygon style="fill:#B9D171;" points="135.997,307.5 75.997,292.5 75.997,262.5 135.997,247.5 "/>
<path style="fill:#CF301B;" d="M376.007,292.5l30,75c0,33.14-26.86,60-60,60v-135H376.007z"/>
<path style="fill:#A45E43;" d="M436.007,192.5c0-11.046-8.954-20-20-20h-30l20,90h30V192.5z"/>
<path style="fill:#C27749;" d="M406.007,192.5c0-11.046-8.954-20-20-20h-20c-11.046,0-20,8.954-20,20v70h60V192.5z"/>
<path style="fill:#A45E43;" d="M405.099,82.047L391.007,142.5c24.853,0,45-20.147,45-45L405.099,82.047z"/>
<path style="fill:#C27749;" d="M406.007,97.5c0-5.429-0.321-10.634-0.908-15.453l-41.095-20.546
	c-10.928,8.21-17.997,21.278-17.997,35.998c0,24.853,20.147,45,45,45C399.291,142.5,406.007,122.353,406.007,97.5z"/>
<path style="fill:#40211D;" d="M391.007,52.5l14.899,39.832c9.413,3.341,19.543,5.168,30.101,5.168
	C436.007,72.647,415.86,52.5,391.007,52.5z"/>
<path style="fill:#60312C;" d="M391.007,52.5c-10.132,0-19.481,3.35-27.003,9.002c10.532,14.02,25.066,24.856,41.901,30.831
	C405.051,69.915,398.708,52.5,391.007,52.5z"/>
<path style="fill:#CF301B;" d="M436.007,292.5h-30l-15,63.477l15,63.477c8.827,5.108,19.067,8.046,30,8.046V292.5z"/>
<path style="fill:#FF4128;" d="M376.007,292.5v75c0,22.207,12.07,41.58,30,51.954V292.5H376.007z"/>
<path style="fill:#CF301B;" d="M105.997,292.5l30,75c0,33.14-26.86,60-60,60v-135H105.997z"/>
<path style="fill:#A45E43;" d="M165.997,192.5c0-11.046-8.954-20-20-20h-30l20,90h30V192.5z"/>
<path style="fill:#C27749;" d="M135.997,192.5c0-11.046-8.954-20-20-20h-20c-11.046,0-20,8.954-20,20v70h60V192.5z"/>
<path style="fill:#A45E43;" d="M120.997,52.5v90c24.853,0,45-20.147,45-45S145.85,52.5,120.997,52.5z"/>
<path style="fill:#C27749;" d="M135.997,97.5c0-24.853-6.716-45-15-45c-24.853,0-45,20.147-45,45s20.147,45,45,45
	C129.281,142.5,135.997,122.353,135.997,97.5z"/>
<path style="fill:#CF301B;" d="M165.997,292.5h-30l-15,63.477l15,63.477c8.827,5.108,19.067,8.046,30,8.046V292.5z"/>
<path style="fill:#FF4128;" d="M105.997,292.5v75c0,22.207,12.07,41.58,30,51.954V292.5H105.997z"/>
<g>
	<path style="fill:#FFCB63;" d="M413.507,367.5v-75h-15v75c0,20.678,16.822,37.5,37.5,37.5v-15
		C423.601,390,413.507,379.906,413.507,367.5z"/>
	<path style="fill:#FFCB63;" d="M368.507,367.5c0,12.406-10.093,22.5-22.5,22.5v15c20.678,0,37.5-16.822,37.5-37.5H368.507z"/>
	<path style="fill:#FFCB63;" d="M143.497,367.5v-75h-15v75c0,20.678,16.822,37.5,37.5,37.5v-15
		C153.59,390,143.497,379.906,143.497,367.5z"/>
	<path style="fill:#FFCB63;" d="M98.497,367.5c0,12.406-10.093,22.5-22.5,22.5v15c20.678,0,37.5-16.822,37.5-37.5H98.497z"/>
</g>
<path d="M391.007,150c28.949,0,52.5-23.552,52.5-52.5S419.956,45,391.007,45s-52.5,23.552-52.5,52.5S362.059,150,391.007,150z
	 M427.658,89.58c-20.154-2-38.58-11.212-52.297-26.147C380.127,61.236,385.424,60,391.007,60
	C408.968,60,424.012,72.694,427.658,89.58z M363.206,72.362c16.692,18.803,39.576,30.243,64.607,32.298
	c-3.352,17.264-18.577,30.34-36.806,30.34c-20.678,0-37.5-16.822-37.5-37.5C353.507,87.837,357.182,79.017,363.206,72.362z"/>
<path d="M468.379,497.385l-24.872-8.29V345h22.5c4.142,0,7.5-3.357,7.5-7.5v-45c0-18.11-12.904-33.261-30-36.745V192.5
	c0-15.163-12.336-27.5-27.5-27.5h-50c-15.164,0-27.5,12.337-27.5,27.5v2.5h-30.005v-22.452c0-0.097,0-165.048,0-165.048
	c0-4.143-3.358-7.5-7.5-7.5s-7.5,3.357-7.5,7.5V165h-7.5c-12.407,0-22.5,10.094-22.5,22.5s10.093,22.5,22.5,22.5h7.5v15h-7.498
	c-12.407,0-22.5,10.094-22.5,22.5s10.093,22.5,22.5,22.5h7.498v127.5c0,4.143,3.358,7.5,7.5,7.5s7.5-3.357,7.5-7.5V270h30.005
	v219.095l-24.872,8.29c-3.93,1.31-6.053,5.558-4.744,9.487c1.31,3.929,5.557,6.049,9.487,4.743l30-10
	c3.063-1.021,5.128-3.887,5.128-7.115v-59.926c13.943-1.561,27.063-7.444,37.518-16.801c10.194,9.131,23.169,15.21,37.482,16.8
	V494.5c0,3.229,2.066,6.095,5.128,7.115l30,10c0.787,0.262,1.586,0.387,2.373,0.387c3.14,0,6.066-1.987,7.114-5.13
	C474.432,502.942,472.309,498.694,468.379,497.385z M458.507,292.5V330h-15v-58.71C452.237,274.386,458.507,282.723,458.507,292.5z
	 M353.507,192.5c0-6.893,5.607-12.5,12.5-12.5h50c6.893,0,12.5,5.607,12.5,12.5V255h-75v-45h52.5c4.142,0,7.5-3.357,7.5-7.5
	s-3.358-7.5-7.5-7.5h-52.5V192.5z M286.002,195c-4.136,0-7.5-3.364-7.5-7.5s3.364-7.5,7.5-7.5h7.5v15H286.002z M286.004,255
	c-4.135,0-7.5-3.364-7.5-7.5s3.365-7.5,7.5-7.5h7.498v15H286.004z M308.502,255v-22.452c0-0.097,0-22.548,0-22.548h30.005v45
	H308.502z M428.507,270v15h-75v-15H428.507z M353.507,300h15v67.5c0,14.563,4.651,28.051,12.524,39.091
	c-7.716,6.909-17.299,11.375-27.524,12.853V300z M383.507,367.5V300h45v119.456C403.1,415.804,383.507,393.901,383.507,367.5z"/>
<path d="M105.997,112.799c5.441,0,10.673-1.725,15-4.811c4.327,3.086,9.559,4.811,15,4.811c4.142,0,7.5-3.357,7.5-7.5
	s-3.358-7.5-7.5-7.5c-3.519,0-6.833-1.725-8.866-4.614c-1.405-1.997-3.693-3.185-6.134-3.185s-4.729,1.188-6.134,3.185
	c-2.033,2.89-5.348,4.614-8.866,4.614c-4.142,0-7.5,3.357-7.5,7.5S101.855,112.799,105.997,112.799z"/>
<path d="M120.997,150c28.949,0,52.5-23.552,52.5-52.5S149.945,45,120.997,45s-52.5,23.552-52.5,52.5S92.048,150,120.997,150z
	 M120.997,60c20.678,0,37.5,16.822,37.5,37.5s-16.822,37.5-37.5,37.5s-37.5-16.822-37.5-37.5S100.319,60,120.997,60z"/>
<path d="M226.002,210c12.407,0,22.5-10.094,22.5-22.5s-10.093-22.5-22.5-22.5h-7.5V7.5c0-4.143-3.358-7.5-7.5-7.5
	s-7.5,3.357-7.5,7.5v164.952c0,0.097,0,22.548,0,22.548h-30.005v-2.5c0-15.163-12.336-27.5-27.5-27.5h-50
	c-15.164,0-27.5,12.337-27.5,27.5v63.255c-17.096,3.484-30,18.635-30,36.745v45c0,4.143,3.358,7.5,7.5,7.5h22.5v144.095
	l-24.872,8.29c-3.93,1.31-6.053,5.558-4.744,9.487c1.31,3.929,5.556,6.049,9.487,4.743l30-10c3.063-1.021,5.128-3.887,5.128-7.115
	v-59.926c13.943-1.561,27.063-7.444,37.518-16.801c10.194,9.131,23.169,15.21,37.482,16.8V494.5c0,3.229,2.066,6.095,5.128,7.115
	l30,10c0.787,0.262,1.586,0.387,2.373,0.387c3.14,0,6.066-1.987,7.114-5.13c1.31-3.93-0.814-8.178-4.744-9.487l-24.872-8.29V270
	H203.5v127.5c0,4.143,3.358,7.5,7.5,7.5s7.5-3.357,7.5-7.5V270h7.498c12.407,0,22.5-10.094,22.5-22.5s-10.093-22.5-22.5-22.5H218.5
	v-15H226.002z M218.502,180h7.5c4.136,0,7.5,3.364,7.5,7.5s-3.364,7.5-7.5,7.5h-7.5V180z M95.997,180h50
	c6.893,0,12.5,5.607,12.5,12.5v2.5h-52.5c-4.142,0-7.5,3.357-7.5,7.5s3.358,7.5,7.5,7.5h52.5v45h-75v-62.5
	C83.497,185.607,89.104,180,95.997,180z M53.497,330v-37.5c0-9.777,6.271-18.114,15-21.21V330H53.497z M83.497,300h15v67.5
	c0,14.563,4.651,28.052,12.524,39.092c-7.716,6.909-17.3,11.375-27.524,12.853V300z M113.497,367.5V300h45v119.456
	C133.089,415.804,113.497,393.901,113.497,367.5z M158.497,285h-75v-15h75V285z M226,240c4.135,0,7.5,3.364,7.5,7.5
	s-3.365,7.5-7.5,7.5h-7.498v-15H226z M203.502,232.452c0,0.097,0,22.548,0,22.548h-30.005v-45h30.005V232.452z"/>
<g>
</g>
<g>
</g>
<g>
</g>
<g>
</g>
<g>
</g>
<g>
</g>
<g>
</g>
<g>
</g>
<g>
</g>
<g>
</g>
<g>
</g>
<g>
</g>
<g>
</g>
<g>
</g>
<g>
</g>
</svg>
