<?xml version="1.0"?>
<svg xmlns="http://www.w3.org/2000/svg" xmlns:xlink="http://www.w3.org/1999/xlink" version="1.1" id="Layer_1" x="0px" y="0px" viewBox="0 0 512 512" style="enable-background:new 0 0 512 512;" xml:space="preserve" width="512px" height="512px" class=""><g><path style="fill:#B169BF" d="M7.535,378.272h86.871l-7.736,61.887c-0.543,4.347-4.239,7.61-8.62,7.61H8.688  c-5.225,0-9.268-4.579-8.62-9.764L7.535,378.272z" data-original="#B169BF" class="" data-old_color="#B169BF"/><path style="fill:#844A8F" d="M94.406,378.272H7.535l-7.467,59.733c-0.648,5.185,3.394,9.764,8.62,9.764h4.769l6.156-39.757  c0.328-2.117,2.15-3.679,4.293-3.679h67.242L94.406,378.272z" data-original="#844A8F" class="" data-old_color="#844A8F"/><path style="fill:#FFC20D" d="M182.429,386.959h-34.748v121.62h34.748c33.584,0,60.81-27.225,60.81-60.81  S216.014,386.959,182.429,386.959z" data-original="#FFC20D" class="" data-old_color="#FFC20D"/><circle style="fill:#F9D84E" cx="147.681" cy="447.767" r="60.81" data-original="#F9D84E" class=""/><circle style="fill:#7A7C82" cx="147.681" cy="447.767" r="34.748" data-original="#7A7C82" class=""/><circle style="fill:#A7A7AB" cx="147.681" cy="447.767" r="26.061" data-original="#A7A7AB" class=""/><path style="fill:#FFC20D" d="M408.294,386.959h-34.748v121.62h34.748c33.584,0,60.81-27.225,60.81-60.81  S441.879,386.959,408.294,386.959z" data-original="#FFC20D" class="" data-old_color="#FFC20D"/><circle style="fill:#F9D84E" cx="373.546" cy="447.767" r="60.81" data-original="#F9D84E" class=""/><circle style="fill:#7A7C82" cx="373.546" cy="447.767" r="34.748" data-original="#7A7C82" class=""/><circle style="fill:#A7A7AB" cx="373.546" cy="447.767" r="26.061" data-original="#A7A7AB" class=""/><path style="fill:#7A7C82" d="M511.741,230.135c-1.99-35.501-15.128-63.1-26.264-80.474l-8.505-93.549  c-0.195-2.144-1.23-4.123-2.881-5.505c-20.342-17.041-54.14-38.726-99.631-45.254c-17.924-2.572-36.234-2.574-54.419-0.002  c-3.207,0.453-5.84,2.764-6.708,5.884c-7.214,25.97-14.561,50.214-21.665,73.658c-6.85,22.604-13.922,45.944-20.908,70.926  l-152.044,92.916l-53.73,5.373c-22.02,2.202-38.625,20.55-38.625,42.68v11.989c0,4.498,3.646,8.144,8.144,8.144h0.243v28.776  h208.491v-28.795c0.333-0.01,0.666-0.026,0.996-0.076l111.937-17.222v46.092h138.994v-46.17c3.358-0.101,6.323-2.242,7.442-5.428  C509.885,273.36,512.958,251.84,511.741,230.135z" data-original="#7A7C82" class=""/><path style="fill:#FD5E95" d="M511.741,230.135c-1.99-35.501-15.128-63.1-26.264-80.474l-8.505-93.549  c-0.195-2.144-1.23-4.123-2.881-5.505c-20.342-17.041-54.14-38.726-99.631-45.254c-17.924-2.572-36.234-2.574-54.419-0.002  c-3.207,0.453-5.84,2.764-6.708,5.884c-7.214,25.97-14.561,50.214-21.665,73.658c-6.85,22.604-13.922,45.944-20.908,70.926  l-152.044,92.916l-53.73,5.373c-22.02,2.202-38.625,20.55-38.625,42.68v11.989c0,4.498,3.646,8.144,8.144,8.144h208.491  c0.415,0,0.829-0.031,1.239-0.094l112.317-17.28h138.371c3.459,0,6.539-2.184,7.685-5.447  C509.885,273.36,512.958,251.84,511.741,230.135z" data-original="#FD5E95" class="" data-old_color="#FD5E95"/><g>
	<path style="fill:#D14D7B" d="M244.235,300.755c-0.409,0.063-0.824,0.094-1.239,0.094H34.505c-4.076,0-7.444-2.999-8.041-6.91   c-0.061,0.941-0.103,1.889-0.103,2.846v11.989c0,4.498,3.646,8.144,8.144,8.144h208.491c0.415,0,0.829-0.031,1.239-0.094   l112.317-17.28h129.927v-16.07H356.552L244.235,300.755z" data-original="#D14D7B" class=""/>
	<path style="fill:#D14D7B" d="M313.332,11.234c-7.214,25.97-14.561,50.214-21.665,73.658   c-6.85,22.604-13.922,45.944-20.908,70.926l-152.044,92.916l159.272-78.953l55.28-165.84c-4.412,0.321-8.824,0.785-13.228,1.408   C316.833,5.802,314.2,8.113,313.332,11.234z" data-original="#D14D7B" class=""/>
</g><path style="fill:#B169BF" d="M64.986,254.107c-22.02,2.202-38.625,20.55-38.625,42.68v11.989c0,4.498,3.646,8.144,8.144,8.144  h78.97v-67.662L64.986,254.107z" data-original="#B169BF" class="" data-old_color="#B169BF"/><path style="fill:#844A8F" d="M51.336,300.088c-4.498,0-8.144-3.646-8.144-8.144v-11.989c0-7.508,1.916-14.578,5.301-20.733  c-13.308,7.324-22.133,21.437-22.133,37.564v11.989c0,4.498,3.646,8.144,8.144,8.144h78.97v-16.831H51.336z" data-original="#844A8F" class="" data-old_color="#844A8F"/><g>
	<path style="fill:#4E5058" d="M147.445,273.485c-2.862,0-5.638-1.512-7.127-4.19l-14.478-26.06   c-2.185-3.932-0.768-8.89,3.164-11.075c3.933-2.183,8.89-0.768,11.075,3.164l14.478,26.06   C157.51,266.701,153.561,273.485,147.445,273.485z" data-original="#4E5058" class=""/>
	<path style="fill:#4E5058" d="M183.641,249.595c-2.632,0-5.214-1.274-6.784-3.628l-14.924-22.386   c-2.495-3.742-1.484-8.799,2.259-11.293c3.742-2.494,8.799-1.484,11.293,2.259l14.924,22.386   C193.941,242.229,190.046,249.595,183.641,249.595z" data-original="#4E5058" class=""/>
	<path style="fill:#4E5058" d="M216.942,230.049c-2.632,0-5.214-1.274-6.784-3.628l-15.425-23.138   c-2.495-3.742-1.484-8.799,2.259-11.293c3.742-2.495,8.799-1.484,11.293,2.259l15.425,23.138   C227.242,222.683,223.346,230.049,216.942,230.049z" data-original="#4E5058" class=""/>
	<path style="fill:#4E5058" d="M247.709,210.503c-2.629,0-5.21-1.272-6.78-3.621l-15.779-23.626   c-2.499-3.741-1.491-8.798,2.249-11.295c3.741-2.499,8.798-1.491,11.295,2.249l15.779,23.626   C258.011,203.13,254.117,210.503,247.709,210.503z" data-original="#4E5058" class=""/>
	<path style="fill:#4E5058" d="M282.92,190.61c-2.476,0-4.921-1.125-6.522-3.258l-17.722-23.629   c-2.698-3.598-1.969-8.703,1.629-11.402c3.598-2.698,8.703-1.97,11.402,1.629l17.722,23.629   C293.368,182.831,289.522,190.61,282.92,190.61z" data-original="#4E5058" class=""/>
	<path style="fill:#4E5058" d="M306.115,157.368c-1.224,0-2.466-0.277-3.636-0.861l-28.378-14.189   c-4.023-2.011-5.654-6.903-3.642-10.926c2.012-4.023,6.905-5.653,10.926-3.642l28.378,14.189c3.223,1.611,5.036,5.272,4.358,8.812   C313.395,154.545,309.98,157.368,306.115,157.368z" data-original="#4E5058" class=""/>
	<path style="fill:#4E5058" d="M314.706,124.187c-0.969,0-1.952-0.174-2.911-0.541l-27.914-10.688   c-4.2-1.608-6.301-6.318-4.693-10.518c1.607-4.2,6.319-6.302,10.518-4.693l27.914,10.688c3.513,1.344,5.694,5.056,5.148,8.78   C322.188,121.167,318.7,124.187,314.706,124.187z" data-original="#4E5058" class=""/>
	<path style="fill:#4E5058" d="M325.1,89.864c-0.799,0-1.613-0.118-2.417-0.368l-29.979-9.304   c-4.296-1.333-6.697-5.896-5.364-10.192c1.333-4.297,5.897-6.696,10.192-5.364l29.979,9.304c3.753,1.165,6.183,4.977,5.656,8.87   C332.63,86.796,329.124,89.864,325.1,89.864z" data-original="#4E5058" class=""/>
	<path style="fill:#4E5058" d="M334.813,55.371c-0.655,0-1.318-0.079-1.982-0.245l-31.001-7.75   c-4.364-1.09-7.017-5.512-5.926-9.876c1.091-4.364,5.52-7.015,9.876-5.926l31.001,7.75c3.91,0.977,6.569,4.806,6.118,8.811   C342.442,52.197,338.904,55.371,334.813,55.371z" data-original="#4E5058" class=""/>
</g><path style="fill:#B169BF" d="M357.086,299.545h137.836c3.459,0,6.539-2.184,7.685-5.447c7.279-20.738,10.351-42.258,9.134-63.963  c-1.99-35.501-15.128-63.1-26.264-80.474l-0.017-0.191C416.629,167.636,364.521,226.971,357.086,299.545z" data-original="#B169BF" class="" data-old_color="#B169BF"/><path style="fill:#844A8F" d="M502.607,294.098c1.235-3.519,2.339-7.062,3.331-10.623H359.502  c-1.047,5.275-1.859,10.634-2.416,16.07h137.836C498.38,299.545,501.461,297.361,502.607,294.098z" data-original="#844A8F" class="" data-old_color="#844A8F"/><path style="fill:#FFC20D" d="M374.589,65.536h55.248c1.821,0,2.833,2.107,1.696,3.528l-29.103,36.379  c-1.138,1.423-0.125,3.528,1.696,3.528h14.864c2.103,0,2.979,2.691,1.277,3.928l-82.954,60.33c-1.84,1.338-4.237-0.693-3.22-2.728  l29.194-58.388c0.722-1.444-0.328-3.143-1.943-3.143h-18.029c-1.821,0-2.833-2.107-1.696-3.528l31.274-39.092  C373.306,65.836,373.93,65.536,374.589,65.536z" data-original="#FFC20D" class="" data-old_color="#FFC20D"/><path style="fill:#909296" d="M495.165,386.959H8.687c-4.797,0-8.687-3.89-8.687-8.687v-34.748c0-4.797,3.89-8.687,8.687-8.687  h486.478c4.797,0,8.687,3.89,8.687,8.687v34.748C503.853,383.07,499.963,386.959,495.165,386.959z" data-original="#909296" class="active-path" data-old_color="#909296"/><path style="fill:#7A7C82" d="M8.687,334.837c-4.797,0-8.687,3.89-8.687,8.687v34.748c0,4.797,3.89,8.687,8.687,8.687h8.687  v-52.123H8.687z" data-original="#7A7C82" class=""/></g> </svg>
